<?xml version="1.0" encoding="UTF-8"?>
<svg xmlns="http://www.w3.org/2000/svg" xmlns:xlink="http://www.w3.org/1999/xlink" version="1.1" width="100%" height="100%" viewBox="0 0 20 20">
  <defs>
    <ellipse id="colour-a" cx="8" cy="5" rx="7" ry="4"/>
    <ellipse id="colour-c" cx="7" cy="4" rx="7" ry="4"/>
  </defs>
  <g fill="none" fill-rule="evenodd" transform="translate(2 1)">
    <g transform="translate(0 6)">
      <ellipse cx="8" cy="8" fill="#000" fill-opacity=".2" rx="7" ry="4"/>
      <path fill="#EBBD31" d="M1.2205306,5 C1.99760549,3.27477279 4.738281,2 8,2 C11.261719,2 14.0023945,3.27477279 14.7794694,5 L15,5 L15,6 C15,6.16933017 15,6.83066983 15,7 C15,9.209139 11.8659932,11 8,11 C4.13400675,11 1,9.209139 1,7 C1,6.83066983 1,6.16933017 1,6 L1,5 L1.2205306,5 Z"/>
      <mask id="colour-b" fill="#fff">
        <use xlink:href="#colour-a"/>
      </mask>
      <use fill="#FFE063" xlink:href="#colour-a"/>
      <ellipse cx="7" cy="4" fill="#000" fill-opacity=".2" mask="url(#colour-b)" rx="7" ry="4"/>
    </g>
    <g transform="translate(0 3)">
      <path fill="#EBBD31" d="M0.220530599,4 C0.997605487,2.27477279 3.738281,1 7,1 C10.261719,1 13.0023945,2.27477279 13.7794694,4 L14,4 L14,5 C14,5.16933017 14,5.83066983 14,6 C14,8.209139 10.8659932,10 7,10 C3.13400675,10 0,8.209139 0,6 C0,5.83066983 0,5.16933017 0,5 L0,4 L0.220530599,4 Z"/>
      <mask id="colour-d" fill="#fff">
        <use xlink:href="#colour-c"/>
      </mask>
      <use fill="#FFE063" xlink:href="#colour-c"/>
      <ellipse cx="9" cy="4" fill="#000" fill-opacity=".2" mask="url(#colour-d)" rx="7" ry="4"/>
    </g>
    <g transform="translate(2)">
      <path fill="#EBBD31" d="M0.220530599,4 C0.997605487,2.27477279 3.738281,1 7,1 C10.261719,1 13.0023945,2.27477279 13.7794694,4 L14,4 L14,5 C14,5.16933017 14,5.83066983 14,6 C14,8.209139 10.8659932,10 7,10 C3.13400675,10 0,8.209139 0,6 C0,5.83066983 0,5.16933017 0,5 L0,4 L0.220530599,4 Z"/>
      <ellipse cx="7" cy="4" fill="#FFE063" rx="7" ry="4"/>
    </g>
  </g>
</svg>
